<svg width="19" height="19" viewBox="0 0 19 19" fill="none" xmlns="http://www.w3.org/2000/svg">
<path d="M10.7251 9.13422C10.6899 9.09905 10.67 9.05128 10.67 9.00147C10.67 8.95166 10.6899 8.9039 10.7251 8.86872L17.6724 1.92222C18.1116 1.48233 18.1111 0.76962 17.6712 0.330347C17.2313 -0.108927 16.5186 -0.108423 16.0794 0.331472L9.13287 7.27497C9.09769 7.31024 9.04993 7.33006 9.00012 7.33006C8.95031 7.33006 8.90255 7.31024 8.86737 7.27497L1.92087 0.331472C1.4816 -0.108009 0.769227 -0.108177 0.329746 0.331097C-0.109735 0.77037 -0.109903 1.48274 0.329371 1.92222L7.27512 8.86872C7.31039 8.9039 7.33021 8.95166 7.33021 9.00147C7.33021 9.05128 7.31039 9.09905 7.27512 9.13422L0.329371 16.0815C0.0452108 16.3658 -0.0656949 16.7801 0.038431 17.1683C0.142557 17.5565 0.445895 17.8597 0.834181 17.9637C1.22247 18.0676 1.63671 17.9565 1.92087 17.6722L8.86737 10.725C8.90255 10.6897 8.95031 10.6699 9.00012 10.6699C9.04993 10.6699 9.09769 10.6897 9.13287 10.725L16.0794 17.6722C16.5186 18.1117 17.231 18.1119 17.6705 17.6726C18.11 17.2333 18.1101 16.521 17.6709 16.0815L10.7251 9.13422Z" fill="#F87171"/>
</svg>
