<svg width="84" height="36" viewBox="0 0 84 36" fill="none" xmlns="http://www.w3.org/2000/svg">
<path d="M27.2641 28.8044H22.6081V35.0444H15.2641V28.8044H0.912125L0.912125 23.2364L16.6081 0.868433L22.6081 0.868433L22.6081 22.9964H27.2641V28.8044ZM15.2641 22.9964V12.2444L7.77613 22.9964L15.2641 22.9964ZM42.5094 35.4764C38.3814 35.4764 35.2134 33.9724 33.0054 30.9644C30.8294 27.9564 29.7414 23.6044 29.7414 17.9084C29.7414 12.2764 30.8294 7.97243 33.0054 4.99643C35.2134 2.02043 38.3814 0.532432 42.5094 0.532432C46.6374 0.532432 49.7894 2.02043 51.9654 4.99643C54.1734 7.97243 55.2774 12.2764 55.2774 17.9084C55.2774 23.6044 54.1734 27.9564 51.9654 30.9644C49.7894 33.9724 46.6374 35.4764 42.5094 35.4764ZM42.5094 29.7164C44.3974 29.7164 45.7734 28.7884 46.6374 26.9324C47.5014 25.0764 47.9334 22.0684 47.9334 17.9084C47.9334 13.8444 47.5014 10.9004 46.6374 9.07643C45.7734 7.22043 44.3974 6.29243 42.5094 6.29243C40.6214 6.29243 39.2454 7.22043 38.3814 9.07643C37.5174 10.9004 37.0854 13.8444 37.0854 17.9084C37.0854 22.0684 37.5174 25.0764 38.3814 26.9324C39.2454 28.7884 40.6214 29.7164 42.5094 29.7164ZM83.0986 23.6204H73.7866V32.9804H68.7946V23.6204H59.4826L59.4826 18.6764H68.7946V9.31643L73.7866 9.31643V18.6764H83.0986V23.6204Z" fill="#27272A"/>
</svg>
