<svg width="83" height="36" viewBox="0 0 83 36" fill="none" xmlns="http://www.w3.org/2000/svg">
<path d="M24.8967 29.0444V35.0444H1.42469L1.42469 29.5244L12.8007 17.4284C15.1687 14.8684 16.3527 12.5324 16.3527 10.4204C16.3527 9.07643 15.9527 8.06843 15.1527 7.39643C14.3847 6.69243 13.2487 6.34043 11.7447 6.34043C8.83269 6.34043 5.80869 7.44443 2.67269 9.65243L0.272688 4.27643C1.64869 3.09243 3.40869 2.16443 5.55269 1.49243C7.69669 0.788432 9.87269 0.436433 12.0807 0.436433C15.6327 0.436433 18.4487 1.30043 20.5287 3.02843C22.6407 4.72443 23.6967 7.01243 23.6967 9.89243C23.6967 11.8764 23.2807 13.7164 22.4487 15.4124C21.6487 17.0764 20.2887 18.9324 18.3687 20.9804L10.6407 29.0444H24.8967ZM43.5968 12.9164C45.7088 12.9164 47.5808 13.3804 49.2128 14.3084C50.8768 15.2044 52.1568 16.4844 53.0528 18.1484C53.9808 19.8124 54.4448 21.7324 54.4448 23.9084C54.4448 26.2124 53.9008 28.2444 52.8128 30.0044C51.7568 31.7324 50.2208 33.0764 48.2048 34.0364C46.2208 34.9644 43.9008 35.4284 41.2448 35.4284C39.0688 35.4284 36.9088 35.0764 34.7648 34.3724C32.6528 33.6684 30.9408 32.7404 29.6288 31.5884L32.0288 26.2124C35.0688 28.4204 38.1728 29.5244 41.3408 29.5244C45.3408 29.5244 47.3408 27.7484 47.3408 24.1964C47.3408 22.5004 46.8128 21.1724 45.7568 20.2124C44.7328 19.2204 43.3248 18.7244 41.5328 18.7244C40.4128 18.7244 39.2768 18.9324 38.1248 19.3484C37.0048 19.7644 35.9968 20.3404 35.1008 21.0764H30.8288V0.868433L52.7648 0.868433V6.62843L38.1248 6.62843V14.2604C39.6288 13.3644 41.4528 12.9164 43.5968 12.9164ZM82.1221 23.6204H72.8101V32.9804H67.8181V23.6204H58.5061L58.5061 18.6764H67.8181V9.31643L72.8101 9.31643V18.6764H82.1221V23.6204Z" fill="#27272A"/>
</svg>
