<svg width="111" height="36" viewBox="0 0 111 36" fill="none" xmlns="http://www.w3.org/2000/svg">
<path d="M14.9015 12.9164C17.0135 12.9164 18.8855 13.3804 20.5175 14.3084C22.1815 15.2044 23.4615 16.4844 24.3575 18.1484C25.2855 19.8124 25.7495 21.7324 25.7495 23.9084C25.7495 26.2124 25.2055 28.2444 24.1175 30.0044C23.0615 31.7324 21.5255 33.0764 19.5095 34.0364C17.5255 34.9644 15.2055 35.4284 12.5495 35.4284C10.3735 35.4284 8.2135 35.0764 6.0695 34.3724C3.9575 33.6684 2.2455 32.7404 0.9335 31.5884L3.3335 26.2124C6.3735 28.4204 9.4775 29.5244 12.6455 29.5244C16.6455 29.5244 18.6455 27.7484 18.6455 24.1964C18.6455 22.5004 18.1175 21.1724 17.0615 20.2124C16.0375 19.2204 14.6295 18.7244 12.8375 18.7244C11.7175 18.7244 10.5815 18.9324 9.4295 19.3484C8.3095 19.7644 7.3015 20.3404 6.4055 21.0764H2.1335L2.1335 0.868433L24.0695 0.868433V6.62843L9.4295 6.62843V14.2604C10.9335 13.3644 12.7575 12.9164 14.9015 12.9164ZM55.1548 28.8044H50.4988V35.0444H43.1548V28.8044H28.8027V23.2364L44.4988 0.868433L50.4988 0.868433L50.4988 22.9964H55.1548V28.8044ZM43.1548 22.9964L43.1548 12.2444L35.6668 22.9964L43.1548 22.9964ZM70.4 35.4764C66.272 35.4764 63.104 33.9724 60.896 30.9644C58.72 27.9564 57.632 23.6044 57.632 17.9084C57.632 12.2764 58.72 7.97243 60.896 4.99643C63.104 2.02043 66.272 0.532432 70.4 0.532432C74.528 0.532432 77.68 2.02043 79.856 4.99643C82.064 7.97243 83.168 12.2764 83.168 17.9084C83.168 23.6044 82.064 27.9564 79.856 30.9644C77.68 33.9724 74.528 35.4764 70.4 35.4764ZM70.4 29.7164C72.288 29.7164 73.664 28.7884 74.528 26.9324C75.392 25.0764 75.824 22.0684 75.824 17.9084C75.824 13.8444 75.392 10.9004 74.528 9.07643C73.664 7.22043 72.288 6.29243 70.4 6.29243C68.512 6.29243 67.136 7.22043 66.272 9.07643C65.408 10.9004 64.976 13.8444 64.976 17.9084C64.976 22.0684 65.408 25.0764 66.272 26.9324C67.136 28.7884 68.512 29.7164 70.4 29.7164ZM110.989 23.6204H101.677V32.9804H96.6853V23.6204H87.3733V18.6764H96.6853V9.31643L101.677 9.31643V18.6764H110.989V23.6204Z" fill="#27272A"/>
</svg>
