<svg width="85" height="36" viewBox="0 0 85 36" fill="none" xmlns="http://www.w3.org/2000/svg">
<path d="M19.3921 17.4764C21.3761 18.0524 22.8961 19.0604 23.9521 20.5004C25.0401 21.9084 25.5841 23.6524 25.5841 25.7324C25.5841 28.7404 24.4481 31.1084 22.1761 32.8364C19.9041 34.5644 16.8161 35.4284 12.9121 35.4284C10.5441 35.4284 8.27213 35.0924 6.09613 34.4204C3.92013 33.7164 2.16013 32.7724 0.816125 31.5884L3.21613 26.2124C6.25613 28.4204 9.37613 29.5244 12.5761 29.5244C14.6561 29.5244 16.1601 29.1724 17.0881 28.4684C18.0481 27.7324 18.5281 26.5804 18.5281 25.0124C18.5281 23.5084 18.0481 22.4204 17.0881 21.7484C16.1601 21.0444 14.6561 20.6924 12.5761 20.6924H7.68013V14.8364H11.7601C13.7441 14.8364 15.2161 14.5004 16.1761 13.8284C17.1361 13.1244 17.6161 12.0684 17.6161 10.6604C17.6161 9.25243 17.1841 8.18043 16.3201 7.44443C15.4881 6.70843 14.2881 6.34043 12.7201 6.34043C11.2481 6.34043 9.74413 6.62843 8.20813 7.20443C6.67213 7.74843 5.16813 8.56443 3.69613 9.65243L1.29613 4.27643C2.67213 3.09243 4.43213 2.16443 6.57613 1.49243C8.72013 0.788432 10.9281 0.436433 13.2001 0.436433C15.5041 0.436433 17.5201 0.820433 19.2481 1.58843C21.0081 2.35643 22.3521 3.42843 23.2801 4.80443C24.2401 6.18043 24.7201 7.79643 24.7201 9.65243C24.7201 11.5084 24.2561 13.1244 23.3281 14.5004C22.4001 15.8444 21.0881 16.8364 19.3921 17.4764ZM42.5094 35.4764C38.3814 35.4764 35.2134 33.9724 33.0054 30.9644C30.8294 27.9564 29.7414 23.6044 29.7414 17.9084C29.7414 12.2764 30.8294 7.97243 33.0054 4.99643C35.2134 2.02043 38.3814 0.532432 42.5094 0.532432C46.6374 0.532432 49.7894 2.02043 51.9654 4.99643C54.1734 7.97243 55.2774 12.2764 55.2774 17.9084C55.2774 23.6044 54.1734 27.9564 51.9654 30.9644C49.7894 33.9724 46.6374 35.4764 42.5094 35.4764ZM42.5094 29.7164C44.3974 29.7164 45.7734 28.7884 46.6374 26.9324C47.5014 25.0764 47.9334 22.0684 47.9334 17.9084C47.9334 13.8444 47.5014 10.9004 46.6374 9.07643C45.7734 7.22043 44.3974 6.29243 42.5094 6.29243C40.6214 6.29243 39.2454 7.22043 38.3814 9.07643C37.5174 10.9004 37.0854 13.8444 37.0854 17.9084C37.0854 22.0684 37.5174 25.0764 38.3814 26.9324C39.2454 28.7884 40.6214 29.7164 42.5094 29.7164ZM71.2906 35.4764C67.1626 35.4764 63.9946 33.9724 61.7866 30.9644C59.6106 27.9564 58.5226 23.6044 58.5226 17.9084C58.5226 12.2764 59.6106 7.97243 61.7866 4.99643C63.9946 2.02043 67.1626 0.532432 71.2906 0.532432C75.4186 0.532432 78.5706 2.02043 80.7466 4.99643C82.9546 7.97243 84.0586 12.2764 84.0586 17.9084C84.0586 23.6044 82.9546 27.9564 80.7466 30.9644C78.5706 33.9724 75.4186 35.4764 71.2906 35.4764ZM71.2906 29.7164C73.1786 29.7164 74.5546 28.7884 75.4186 26.9324C76.2826 25.0764 76.7146 22.0684 76.7146 17.9084C76.7146 13.8444 76.2826 10.9004 75.4186 9.07643C74.5546 7.22043 73.1786 6.29243 71.2906 6.29243C69.4026 6.29243 68.0266 7.22043 67.1626 9.07643C66.2986 10.9004 65.8666 13.8444 65.8666 17.9084C65.8666 22.0684 66.2986 25.0764 67.1626 26.9324C68.0266 28.7884 69.4026 29.7164 71.2906 29.7164Z" fill="#27272A"/>
</svg>
