<svg width="17" height="16" viewBox="0 0 17 16" fill="none" xmlns="http://www.w3.org/2000/svg">
<path fill-rule="evenodd" clip-rule="evenodd" d="M16.0845 7.9998C16.0845 8.28791 15.9195 8.55056 15.6599 8.67555L1.34097 15.5698C1.0639 15.7032 0.73347 15.654 0.507342 15.4456C0.281213 15.2372 0.205212 14.9119 0.315602 14.6249L2.8637 7.9998L0.315604 1.37474C0.205213 1.08772 0.281213 0.762402 0.507342 0.554001C0.733471 0.345599 1.0639 0.296352 1.34097 0.429757L15.6599 7.32405C15.9195 7.44904 16.0845 7.71168 16.0845 7.9998ZM4.18236 8.7498L2.39472 13.3977L12.048 8.7498H4.18236ZM12.048 7.2498L2.39472 2.60193L4.18236 7.2498H12.048Z" fill="white"/>
</svg>
