<svg width="14" height="30" viewBox="0 0 14 30" fill="none" xmlns="http://www.w3.org/2000/svg">
<path d="M0.333333 29.6666H13.6667V0.333313H0.333333V29.6666ZM7 24.3333C6.64638 24.3333 6.30724 24.1928 6.05719 23.9428C5.80714 23.6927 5.66667 23.3536 5.66667 23C5.66667 22.6464 5.80714 22.3072 6.05719 22.0572C6.30724 21.8071 6.64638 21.6666 7 21.6666C7.35362 21.6666 7.69276 21.8071 7.94281 22.0572C8.19286 22.3072 8.33333 22.6464 8.33333 23C8.33333 23.3536 8.19286 23.6927 7.94281 23.9428C7.69276 24.1928 7.35362 24.3333 7 24.3333ZM7 5.66665C7.35362 5.66665 7.69276 5.80712 7.94281 6.05717C8.19286 6.30722 8.33333 6.64636 8.33333 6.99998C8.33333 7.3536 8.19286 7.69274 7.94281 7.94279C7.69276 8.19284 7.35362 8.33331 7 8.33331C6.64638 8.33331 6.30724 8.19284 6.05719 7.94279C5.80714 7.69274 5.66667 7.3536 5.66667 6.99998C5.66667 6.64636 5.80714 6.30722 6.05719 6.05717C6.30724 5.80712 6.64638 5.66665 7 5.66665ZM7 13.6666C7.35362 13.6666 7.69276 13.8071 7.94281 14.0572C8.19286 14.3072 8.33333 14.6464 8.33333 15C8.33333 15.3536 8.19286 15.6927 7.94281 15.9428C7.69276 16.1928 7.35362 16.3333 7 16.3333C6.64638 16.3333 6.30724 16.1928 6.05719 15.9428C5.80714 15.6927 5.66667 15.3536 5.66667 15C5.66667 14.6464 5.80714 14.3072 6.05719 14.0572C6.30724 13.8071 6.64638 13.6666 7 13.6666Z" fill="#22D3EE"/>
</svg>
