<svg width="176" height="102" viewBox="0 0 176 102" fill="none" xmlns="http://www.w3.org/2000/svg">
<g filter="url(#filter0_dd_1_153)">
<rect x="3" y="2" width="170" height="96" fill="white"/>
</g>
<path d="M66.5261 59.321C66.3645 58.9308 66.2131 58.5206 66.0515 58.1704L65.3042 56.4994L65.2739 56.4694C63.0524 51.6666 60.6793 46.7838 58.1649 41.981L58.0639 41.7809C57.8115 41.3106 57.559 40.7903 57.2965 40.31C56.9734 39.7397 56.6603 39.1293 56.1453 38.549C55.6433 37.9418 55.0115 37.4526 54.2956 37.1166C53.5796 36.7807 52.7973 36.6064 52.0051 36.6064C51.2129 36.6064 50.4306 36.7807 49.7147 37.1166C48.9987 37.4526 48.3669 37.9418 47.8649 38.549C47.3903 39.1293 47.0369 39.7397 46.7137 40.31C46.4613 40.8303 46.2088 41.3406 45.9463 41.8109L45.8453 42.011C43.3713 46.8138 40.9579 51.6966 38.7363 56.4994L38.6757 56.5594C38.4535 57.0797 38.191 57.62 37.9385 58.2004C37.777 58.5506 37.6154 58.9308 37.4538 59.351C37.0176 60.4515 36.8783 61.6455 37.0497 62.8155C37.221 63.9855 37.6971 65.0911 38.431 66.0233C39.1648 66.9555 40.1312 67.6821 41.2348 68.1316C42.3384 68.581 43.5411 68.7378 44.7244 68.5864C45.8589 68.4384 46.9513 68.064 47.9356 67.4858C49.2483 66.7553 50.5106 65.6947 51.9243 64.1638C53.3381 65.6947 54.6306 66.7553 55.9131 67.4958C57.1463 68.213 58.5429 68.6089 59.9725 68.6464C61.6279 68.6532 63.2299 68.0664 64.4827 66.9942C65.7356 65.922 66.5546 64.4369 66.7886 62.813C67.0591 61.6461 66.9676 60.4255 66.5261 59.311V59.321ZM52.0253 60.982C50.2884 58.7807 49.1575 56.7595 48.7737 55.0285C48.6148 54.3871 48.5805 53.7215 48.6728 53.0674C48.7434 52.5571 48.9353 52.1068 49.1979 51.7266C49.8037 50.8561 50.864 50.3158 52.0253 50.3158C52.5768 50.2991 53.1238 50.4184 53.6173 50.6629C54.1108 50.9074 54.5353 51.2694 54.8528 51.7166C55.1153 52.1169 55.3072 52.5571 55.3678 53.0674C55.4687 53.6477 55.4284 54.3181 55.2668 55.0285C54.8831 56.7295 53.7521 58.7707 52.0253 60.982ZM64.8902 62.4628C64.7755 63.2873 64.4447 64.0675 63.9309 64.7258C63.4171 65.3842 62.7382 65.8976 61.9618 66.215C61.1943 66.5352 60.3461 66.6253 59.5181 66.5352C58.7102 66.4351 57.9024 66.175 57.0743 65.6947C55.6995 64.8527 54.4632 63.8066 53.4087 62.5929C55.5293 59.9914 56.8118 57.62 57.2965 55.5088C57.5287 54.5082 57.559 53.6077 57.4581 52.7772C57.332 51.9901 57.0357 51.2392 56.5896 50.576C56.0803 49.8568 55.4004 49.2727 54.6098 48.8749C53.8192 48.4771 52.9421 48.2778 52.0556 48.2946C50.1875 48.2946 48.5213 49.1551 47.5115 50.566C47.0569 51.2275 46.7631 51.9844 46.6532 52.7772C46.5219 53.6177 46.5522 54.5483 46.8147 55.5088C47.2994 57.62 48.6122 60.0214 50.7025 62.6129C49.6659 63.8498 48.4267 64.9051 47.0369 65.7347C46.1987 66.215 45.401 66.4652 44.5932 66.5652C43.3368 66.7247 42.0678 66.3864 41.0618 65.6238C40.0559 64.8612 39.3943 63.7361 39.221 62.4929C39.12 61.6924 39.1907 60.8919 39.5138 59.9914C39.6148 59.6712 39.7663 59.351 39.9279 58.9708C40.15 58.4505 40.4126 57.9102 40.665 57.3699L40.7054 57.2999C42.8866 52.5271 45.2697 47.6543 47.7437 42.8815L47.8447 42.6814C48.0972 42.2011 48.3496 41.6908 48.6122 41.2105C48.8747 40.7002 49.1575 40.21 49.521 39.8097C49.8357 39.4375 50.2288 39.1382 50.6729 38.9328C51.1169 38.7275 51.6009 38.621 52.0909 38.621C52.581 38.621 53.065 38.7275 53.509 38.9328C53.953 39.1382 54.3462 39.4375 54.6609 39.8097C55.0143 40.21 55.3072 40.7002 55.5697 41.2105C55.8222 41.6908 56.0746 42.2111 56.3372 42.6814L56.4382 42.8815C58.9021 47.6543 61.2852 52.5271 63.5068 57.2999L63.5371 57.3299C63.7996 57.8502 64.0218 58.4305 64.2742 58.9308C64.4358 59.321 64.5974 59.6312 64.6983 59.9614C64.8902 60.8619 64.9912 61.6624 64.8902 62.4628ZM78.9467 60.7619C78.1858 60.7729 77.4321 60.614 76.7416 60.297C76.0511 59.9801 75.4415 59.5131 74.958 58.9308C73.8715 57.69 73.2948 56.0902 73.3423 54.4482C73.3256 52.7704 73.9209 51.1431 75.0185 49.8656C75.5263 49.2758 76.1583 48.8036 76.8701 48.482C77.582 48.1605 78.3563 47.9975 79.1385 48.0045C79.8746 47.9845 80.6037 48.1504 81.2573 48.4864C81.9109 48.8225 82.4675 49.3177 82.8748 49.9256L82.9758 48.3547H85.9244V60.4417H82.9657L82.8647 58.6807C82.4448 59.3297 81.8644 59.8616 81.1787 60.2258C80.493 60.5901 79.7246 60.7746 78.9467 60.7619ZM79.7141 57.8802C80.2998 57.8802 80.8148 57.7201 81.2995 57.4299C81.7438 57.1097 82.1074 56.6895 82.3901 56.1792C82.6426 55.6689 82.7738 55.0586 82.7738 54.3782C82.8132 53.7872 82.6971 53.1963 82.4369 52.6631C82.1767 52.1299 81.7813 51.6728 81.2894 51.3364C80.8168 51.0446 80.271 50.8899 79.7141 50.8899C79.1572 50.8899 78.6115 51.0446 78.1388 51.3364C77.6945 51.6566 77.331 52.0768 77.0482 52.5871C76.7812 53.1499 76.6498 53.7665 76.6645 54.3882C76.6252 54.9791 76.7412 55.5701 77.0014 56.1032C77.2616 56.6364 77.657 57.0935 78.1489 57.4299C78.6235 57.7201 79.1385 57.8802 79.7141 57.8802ZM90.9734 45.0928C90.9734 45.443 90.9129 45.7632 90.7513 46.0233C90.5897 46.2735 90.3676 46.5036 90.0747 46.6637C89.7819 46.8238 89.4688 46.8838 89.1457 46.8838C88.8226 46.8838 88.4994 46.8238 88.2066 46.6637C87.9296 46.5109 87.6967 46.2905 87.53 46.0233C87.3736 45.7383 87.2969 45.417 87.3079 45.0928C87.3079 44.7326 87.3785 44.4124 87.53 44.1622C87.6916 43.8621 87.9238 43.682 88.2066 43.5219C88.4994 43.3618 88.8125 43.2917 89.1457 43.2917C89.4671 43.2844 89.785 43.3598 90.0682 43.5107C90.3514 43.6615 90.5902 43.8826 90.7614 44.1522C90.9083 44.444 90.9811 44.7668 90.9734 45.0928ZM87.5401 60.4017V48.3347H90.7513V60.4217H87.53L87.5401 60.4017ZM99.3346 51.4965V51.5365C99.1831 51.4665 98.9812 51.4365 98.8297 51.4064C98.6278 51.3664 98.4662 51.3664 98.2743 51.3664C97.3756 51.3664 96.699 51.6266 96.2547 52.1669C95.77 52.7172 95.5479 53.4876 95.5479 54.4782V60.4117H92.3266V48.3247H95.2853L95.3863 50.1557C95.7094 49.5153 96.0931 49.0351 96.6384 48.6749C97.1808 48.3249 97.8194 48.1501 98.4662 48.1746C98.6984 48.1746 98.9206 48.1946 99.1125 48.2346C99.2134 48.2646 99.274 48.2646 99.3346 48.2946V51.4965ZM100.627 60.4017V43.3718H103.838V49.8756C104.293 49.2952 104.808 48.845 105.454 48.4948C106.477 47.9977 107.639 47.8567 108.753 48.0945C109.867 48.3323 110.868 48.9351 111.594 49.8055C112.683 51.0488 113.259 52.6527 113.209 54.2981C113.226 55.9759 112.631 57.6032 111.533 58.8808C111.025 59.4705 110.393 59.9428 109.681 60.2643C108.97 60.5858 108.195 60.7489 107.413 60.7418C106.677 60.7618 105.948 60.596 105.294 60.2599C104.641 59.9238 104.084 59.4286 103.677 58.8207L103.576 60.3916L100.627 60.4217V60.4017ZM106.837 57.8802C107.413 57.8802 107.928 57.7201 108.413 57.4299C108.857 57.1097 109.221 56.6895 109.503 56.1792C109.766 55.6689 109.887 55.0586 109.887 54.3782C109.887 53.7078 109.766 53.0974 109.503 52.5871C109.238 52.0951 108.866 51.6678 108.413 51.3364C107.94 51.0446 107.394 50.8899 106.837 50.8899C106.281 50.8899 105.735 51.0446 105.262 51.3364C104.808 51.6566 104.454 52.0768 104.161 52.5871C103.894 53.1499 103.763 53.7665 103.778 54.3882C103.738 54.9791 103.854 55.5701 104.115 56.1032C104.375 56.6364 104.77 57.0935 105.262 57.4299C105.737 57.7201 106.252 57.8802 106.837 57.8802ZM114.421 60.4117V48.3247H117.38L117.481 49.8956C117.853 49.2934 118.38 48.8006 119.008 48.4681C119.637 48.1357 120.344 47.9756 121.055 48.0045C121.869 47.9905 122.67 48.2147 123.356 48.649C124.042 49.0832 124.583 49.7082 124.913 50.4459C125.266 51.2063 125.458 52.1469 125.458 53.1975V60.4417H122.237V53.6177C122.237 52.7772 122.045 52.1169 121.661 51.6266C121.278 51.1463 120.753 50.8861 120.086 50.8861C119.601 50.8861 119.177 50.9862 118.804 51.2063C118.45 51.4365 118.157 51.7266 117.935 52.1369C117.711 52.5516 117.599 53.0172 117.612 53.4876V60.4117H114.421ZM127.064 60.4117V43.3618H130.285V49.8656C130.721 49.282 131.289 48.8072 131.943 48.4789C132.597 48.1507 133.319 47.9779 134.052 47.9745C134.813 47.9634 135.566 48.1223 136.257 48.4393C136.947 48.7563 137.557 49.2232 138.04 49.8055C139.122 51.0488 139.694 52.6477 139.646 54.2881C139.664 55.966 139.068 57.5936 137.97 58.8708C137.462 59.4605 136.83 59.9327 136.118 60.2543C135.406 60.5758 134.632 60.7388 133.85 60.7318C133.114 60.7518 132.385 60.586 131.731 60.2499C131.077 59.9138 130.521 59.4186 130.113 58.8107L130.023 60.3816L127.064 60.4117ZM133.304 57.8802C133.89 57.8802 134.405 57.7201 134.88 57.4299C135.334 57.1097 135.688 56.6895 135.98 56.1792C136.233 55.6689 136.364 55.0586 136.364 54.3782C136.403 53.7872 136.287 53.1963 136.027 52.6631C135.767 52.1299 135.372 51.6728 134.88 51.3364C134.407 51.0446 133.861 50.8899 133.304 50.8899C132.748 50.8899 132.202 51.0446 131.729 51.3364C131.285 51.6566 130.921 52.0768 130.639 52.5871C130.357 53.1449 130.225 53.7651 130.255 54.3882C130.215 54.9791 130.332 55.5701 130.592 56.1032C130.852 56.6364 131.247 57.0935 131.739 57.4299C132.214 57.7201 132.699 57.8802 133.304 57.8802Z" fill="#FF385C"/>
<defs>
<filter id="filter0_dd_1_153" x="0" y="0" width="176" height="102" filterUnits="userSpaceOnUse" color-interpolation-filters="sRGB">
<feFlood flood-opacity="0" result="BackgroundImageFix"/>
<feColorMatrix in="SourceAlpha" type="matrix" values="0 0 0 0 0 0 0 0 0 0 0 0 0 0 0 0 0 0 127 0" result="hardAlpha"/>
<feOffset dy="1"/>
<feGaussianBlur stdDeviation="1.5"/>
<feColorMatrix type="matrix" values="0 0 0 0 0 0 0 0 0 0 0 0 0 0 0 0 0 0 0.1 0"/>
<feBlend mode="normal" in2="BackgroundImageFix" result="effect1_dropShadow_1_153"/>
<feColorMatrix in="SourceAlpha" type="matrix" values="0 0 0 0 0 0 0 0 0 0 0 0 0 0 0 0 0 0 127 0" result="hardAlpha"/>
<feOffset dy="1"/>
<feGaussianBlur stdDeviation="1"/>
<feColorMatrix type="matrix" values="0 0 0 0 0 0 0 0 0 0 0 0 0 0 0 0 0 0 0.06 0"/>
<feBlend mode="normal" in2="effect1_dropShadow_1_153" result="effect2_dropShadow_1_153"/>
<feBlend mode="normal" in="SourceGraphic" in2="effect2_dropShadow_1_153" result="shape"/>
</filter>
</defs>
</svg>
