<svg width="176" height="102" viewBox="0 0 176 102" fill="none" xmlns="http://www.w3.org/2000/svg">
<g filter="url(#filter0_dd_1_101)">
<rect x="3" y="2" width="170" height="96" fill="white"/>
</g>
<g clip-path="url(#clip0_1_101)">
<path fill-rule="evenodd" clip-rule="evenodd" d="M100.899 59.025C94.9137 63.5733 86.238 66 78.7685 66C68.295 66 58.8661 62.0064 51.7328 55.3642C51.1724 54.8419 51.6746 54.13 52.3471 54.5368C60.0453 59.1544 69.5638 61.9324 79.3962 61.9324C86.0273 61.9324 93.322 60.518 100.029 57.5829C101.043 57.1391 101.89 58.267 100.899 59.025Z" fill="#FF9900"/>
<path fill-rule="evenodd" clip-rule="evenodd" d="M103.388 56.0899C102.626 55.0822 98.3304 55.6138 96.4025 55.8495C95.8152 55.9235 95.7255 55.3966 96.2545 55.0175C99.6755 52.5354 105.289 53.2518 105.943 54.0838C106.598 54.9205 105.773 60.7214 102.558 63.4902C102.065 63.9154 101.594 63.6889 101.814 63.125C102.536 61.2668 104.154 57.1022 103.388 56.0899Z" fill="#FF9900"/>
<path fill-rule="evenodd" clip-rule="evenodd" d="M96.5368 37.4944V35.0816C96.5368 34.7164 96.8059 34.4714 97.1287 34.4714H107.607C107.943 34.4714 108.212 34.721 108.212 35.0816V37.1477C108.207 37.4944 107.925 37.9474 107.423 38.6638L101.993 46.6557C104.011 46.6049 106.141 46.9146 107.97 47.9777C108.382 48.2181 108.494 48.5694 108.526 48.916V51.4906C108.526 51.8419 108.149 52.2533 107.755 52.0407C104.531 50.2981 100.249 50.1086 96.6848 52.0592C96.3216 52.2626 95.9405 51.8558 95.9405 51.5045V49.0593C95.9405 48.6664 95.945 47.9962 96.3261 47.3999L102.617 38.0999H97.1421C96.8059 38.0999 96.5368 37.8549 96.5368 37.4944Z" fill="black"/>
<path fill-rule="evenodd" clip-rule="evenodd" d="M58.3147 52.5491H55.1269C54.822 52.526 54.5799 52.2903 54.5575 51.9898V35.1232C54.5575 34.7858 54.831 34.5177 55.1717 34.5177H58.1443C58.4537 34.5315 58.7003 34.7765 58.7227 35.0816V37.2864H58.781C59.5566 35.1555 61.0138 34.1617 62.9775 34.1617C64.9727 34.1617 66.2191 35.1555 67.1158 37.2864C67.887 35.1555 69.6401 34.1617 71.5187 34.1617C72.8547 34.1617 74.3164 34.7303 75.2086 36.006C76.2174 37.4251 76.0112 39.4866 76.0112 41.2939L76.0067 51.939C76.0067 52.2764 75.7332 52.5491 75.3924 52.5491H72.2091C71.8908 52.526 71.6352 52.2625 71.6352 51.939V42.9995C71.6352 42.2877 71.698 40.5127 71.5456 39.8379C71.3079 38.7054 70.5951 38.3865 69.6714 38.3865C68.9003 38.3865 68.0932 38.9181 67.7659 39.7686C67.4387 40.6191 67.47 42.0427 67.47 42.9995V51.939C67.47 52.2764 67.1965 52.5491 66.8558 52.5491H63.6725C63.3497 52.526 63.0986 52.2625 63.0986 51.939L63.0941 42.9995C63.0941 41.1183 63.3945 38.3495 61.1303 38.3495C58.8393 38.3495 58.9289 41.0489 58.9289 42.9995V51.939C58.9289 52.2764 58.6554 52.5491 58.3147 52.5491" fill="black"/>
<path fill-rule="evenodd" clip-rule="evenodd" d="M117.233 34.1617C121.963 34.1617 124.523 38.3495 124.523 43.6744C124.523 48.819 121.694 52.9004 117.233 52.9004C112.588 52.9004 110.059 48.7126 110.059 43.4941C110.059 38.2432 112.619 34.1617 117.233 34.1617ZM117.259 37.6053C114.91 37.6053 114.762 40.9056 114.762 42.9625C114.762 45.0241 114.731 49.4245 117.233 49.4245C119.703 49.4245 119.82 45.8746 119.82 43.7114C119.82 42.2877 119.761 40.5867 119.344 39.237C118.986 38.0629 118.273 37.6053 117.259 37.6053Z" fill="black"/>
<path fill-rule="evenodd" clip-rule="evenodd" d="M130.656 52.5491H127.482C127.164 52.526 126.908 52.2625 126.908 51.939L126.904 35.0677C126.931 34.758 127.195 34.5177 127.518 34.5177H130.473C130.751 34.5315 130.979 34.7257 131.042 34.9891V37.5684H131.1C131.992 35.2618 133.243 34.1617 135.445 34.1617C136.875 34.1617 138.269 34.6933 139.166 36.1493C140 37.499 140 39.7686 140 41.4002V52.0176C139.964 52.3134 139.7 52.5491 139.386 52.5491H136.189C135.898 52.526 135.655 52.3041 135.624 52.0176V42.8562C135.624 41.0119 135.83 38.3125 133.629 38.3125C132.853 38.3125 132.14 38.8487 131.786 39.6622C131.338 40.693 131.28 41.7192 131.28 42.8562V51.939C131.275 52.2764 130.997 52.5491 130.656 52.5491" fill="black"/>
<path fill-rule="evenodd" clip-rule="evenodd" d="M88.184 44.4926C88.184 45.7729 88.2154 46.8407 87.5877 47.9777C87.081 48.9022 86.274 49.4707 85.3818 49.4707C84.1578 49.4707 83.4404 48.5093 83.4404 47.0903C83.4404 44.2892 85.875 43.7807 88.184 43.7807V44.4926ZM91.3987 52.5029C91.188 52.6971 90.8831 52.7109 90.6454 52.5815C89.5873 51.6756 89.3945 51.2549 88.8162 50.3906C87.0676 52.2302 85.8257 52.7803 83.5615 52.7803C80.8758 52.7803 78.791 51.0747 78.791 47.6588C78.791 44.9918 80.1899 43.1752 82.1895 42.2877C83.9202 41.5019 86.3368 41.3633 88.184 41.146V40.7208C88.184 39.9396 88.2423 39.0152 87.7939 38.3403C87.4083 37.7348 86.6641 37.4852 86.005 37.4852C84.79 37.4852 83.7094 38.1277 83.4449 39.4589C83.3911 39.7547 83.1804 40.0459 82.8889 40.0598L79.7998 39.7177C79.5397 39.6577 79.2483 39.4404 79.3245 39.029C80.0329 35.1648 83.4225 34 86.4533 34C88.0046 34 90.0312 34.4252 91.2552 35.6363C92.8065 37.1293 92.6585 39.1215 92.6585 41.2893V46.4108C92.6585 47.95 93.2773 48.6249 93.8601 49.4569C94.0619 49.7527 94.1067 50.1086 93.8467 50.3305C93.1966 50.8898 92.0398 51.9298 91.4031 52.5122L91.3987 52.5029" fill="black"/>
<path fill-rule="evenodd" clip-rule="evenodd" d="M46.393 44.4928C46.393 45.7732 46.4244 46.8409 45.7967 47.978C45.29 48.9024 44.4875 49.471 43.5908 49.471C42.3668 49.471 41.6539 48.5095 41.6539 47.0905C41.6539 44.2894 44.0884 43.781 46.393 43.781V44.4928ZM49.6077 52.5032C49.3969 52.6973 49.0921 52.7112 48.8544 52.5818C47.7963 51.6758 47.608 51.2552 47.0252 50.3908C45.2766 52.2305 44.0391 52.7805 41.7705 52.7805C39.0893 52.7805 37 51.0749 37 47.6591C37 44.992 38.4033 43.1755 40.3985 42.288C42.1291 41.5022 44.5458 41.3635 46.393 41.1463V40.721C46.393 39.9399 46.4513 39.0154 46.0074 38.3406C45.6173 37.735 44.8731 37.4854 44.2185 37.4854C43.0034 37.4854 41.9184 38.1279 41.6539 39.4591C41.6001 39.755 41.3894 40.0462 41.1024 40.06L38.0088 39.718C37.7487 39.6579 37.4618 39.4407 37.5335 39.0293C38.2464 35.1651 41.6315 34.0002 44.6623 34.0002C46.2136 34.0002 48.2402 34.4255 49.4642 35.6365C51.0155 37.1295 50.8675 39.1217 50.8675 41.2896V46.411C50.8675 47.9503 51.4863 48.6251 52.0691 49.4571C52.2754 49.7529 52.3202 50.1089 52.0601 50.3307C51.41 50.89 50.2533 51.93 49.6166 52.5124L49.6077 52.5032" fill="black"/>
</g>
<defs>
<filter id="filter0_dd_1_101" x="0" y="0" width="176" height="102" filterUnits="userSpaceOnUse" color-interpolation-filters="sRGB">
<feFlood flood-opacity="0" result="BackgroundImageFix"/>
<feColorMatrix in="SourceAlpha" type="matrix" values="0 0 0 0 0 0 0 0 0 0 0 0 0 0 0 0 0 0 127 0" result="hardAlpha"/>
<feOffset dy="1"/>
<feGaussianBlur stdDeviation="1.5"/>
<feColorMatrix type="matrix" values="0 0 0 0 0 0 0 0 0 0 0 0 0 0 0 0 0 0 0.1 0"/>
<feBlend mode="normal" in2="BackgroundImageFix" result="effect1_dropShadow_1_101"/>
<feColorMatrix in="SourceAlpha" type="matrix" values="0 0 0 0 0 0 0 0 0 0 0 0 0 0 0 0 0 0 127 0" result="hardAlpha"/>
<feOffset dy="1"/>
<feGaussianBlur stdDeviation="1"/>
<feColorMatrix type="matrix" values="0 0 0 0 0 0 0 0 0 0 0 0 0 0 0 0 0 0 0.06 0"/>
<feBlend mode="normal" in2="effect1_dropShadow_1_101" result="effect2_dropShadow_1_101"/>
<feBlend mode="normal" in="SourceGraphic" in2="effect2_dropShadow_1_101" result="shape"/>
</filter>
<clipPath id="clip0_1_101">
<rect width="103" height="32" fill="white" transform="translate(37 34)"/>
</clipPath>
</defs>
</svg>
