<svg width="176" height="102" viewBox="0 0 176 102" fill="none" xmlns="http://www.w3.org/2000/svg">
<g filter="url(#filter0_dd_1_121)">
<rect x="3" y="2" width="170" height="96" fill="white"/>
</g>
<path fill-rule="evenodd" clip-rule="evenodd" d="M104.2 43.31L102.2 39.93L98.65 41.62L96.65 38.23L93.1 39.93L91.11 36.53L87.56 38.23L85.56 34.84L82.01 36.54L80.02 33.14L76.46 34.84L68.93 59.36L78.08 62.16C78.4247 61.0548 79.1533 60.1094 80.1342 59.4945C81.1151 58.8797 82.2836 58.636 83.4285 58.8075C84.5734 58.979 85.6192 59.5544 86.3769 60.4296C87.1346 61.3049 87.5543 62.4223 87.56 63.58V63.68C87.58 64.12 87.53 64.56 87.4 65L96.7 67.85L104.2 43.31Z" fill="#D61920"/>
<path fill-rule="evenodd" clip-rule="evenodd" d="M76.78 57.34C76.5487 57.3017 76.3388 57.1818 76.1883 57.002C76.0379 56.8222 75.9568 56.5944 75.96 56.36V44.36C75.9587 44.2283 75.9836 44.0976 76.0334 43.9757C76.0832 43.8538 76.1568 43.743 76.2499 43.6499C76.343 43.5568 76.4538 43.4832 76.5757 43.4334C76.6977 43.3836 76.8283 43.3586 76.96 43.36H85.63C86.1408 43.3587 86.6469 43.458 87.1194 43.6523C87.5918 43.8465 88.0214 44.132 88.3836 44.4923C88.7457 44.8525 89.0334 45.2806 89.2301 45.7521C89.4268 46.2236 89.5287 46.7291 89.53 47.24V56.36C89.5297 56.5073 89.4969 56.6527 89.434 56.7858C89.371 56.9189 89.2794 57.0365 89.1657 57.1301C89.052 57.2237 88.919 57.2911 88.7763 57.3274C88.6336 57.3637 88.4846 57.368 88.34 57.34C88.1105 57.2996 87.9029 57.1788 87.7545 56.9992C87.6061 56.8196 87.5265 56.593 87.53 56.36V47.25C87.53 46.7461 87.3298 46.2628 86.9735 45.9065C86.6172 45.5502 86.1339 45.35 85.63 45.35H83.74V56.35C83.7408 56.484 83.7146 56.6167 83.6631 56.7404C83.6115 56.8641 83.5357 56.9762 83.44 57.07C83.3261 57.1829 83.1866 57.2664 83.0333 57.3135C82.88 57.3605 82.7176 57.3696 82.56 57.34C82.3287 57.3017 82.1188 57.1818 81.9683 57.002C81.8179 56.8222 81.7368 56.5944 81.74 56.36V45.35H77.96V56.35C77.9609 56.4971 77.9294 56.6426 77.8676 56.7761C77.8059 56.9096 77.7154 57.0279 77.6027 57.1224C77.4901 57.217 77.3579 57.2855 77.2157 57.3231C77.0735 57.3607 76.9247 57.3665 76.78 57.34ZM91.2 62.57C90.967 62.5315 90.7557 62.4101 90.605 62.2282C90.4543 62.0463 90.3744 61.8161 90.38 61.58C90.3811 61.3176 90.4852 61.0662 90.67 60.88C90.8546 60.6916 91.1062 60.5837 91.37 60.58C92.22 60.58 92.95 60.04 93.19 59.23L94.22 55.8L90.85 44.53C90.8098 44.4039 90.795 44.2712 90.8065 44.1394C90.818 44.0076 90.8555 43.8794 90.9169 43.7622C90.9783 43.645 91.0623 43.5411 91.1641 43.4566C91.2659 43.3722 91.3835 43.3087 91.51 43.27C91.7619 43.2002 92.031 43.2297 92.2617 43.3525C92.4924 43.4753 92.6672 43.682 92.75 43.93L95.25 52.33L97.79 43.93C97.91 43.47 98.42 43.16 98.94 43.26L99.01 43.27C99.55 43.44 99.85 44.01 99.69 44.54L96.22 56.1L95.12 59.8C94.8731 60.5962 94.3837 61.2955 93.72 61.8C93.0449 62.3063 92.2238 62.58 91.38 62.58C91.3198 62.5823 91.2595 62.5789 91.2 62.57Z" fill="#FEFEFE"/>
<path fill-rule="evenodd" clip-rule="evenodd" d="M30.08 55.15H32.04C32.5625 55.15 33.0635 54.9424 33.433 54.573C33.8024 54.2035 34.01 53.7025 34.01 53.18V47.41C34.0113 47.1513 33.9617 46.8949 33.8639 46.6553C33.7661 46.4158 33.6221 46.1979 33.4401 46.0141C33.2581 45.8302 33.0416 45.684 32.8031 45.5838C32.5646 45.4836 32.3087 45.4313 32.05 45.43H30.08V55.13V55.15ZM28.85 57.21C28.6099 57.1694 28.3922 57.0443 28.2363 56.8572C28.0804 56.6702 27.9966 56.4335 28 56.19V38.27C27.9982 38.1329 28.0239 37.9968 28.0754 37.8697C28.1269 37.7427 28.2032 37.6272 28.3 37.53C28.417 37.4085 28.5621 37.3175 28.7226 37.2652C28.883 37.2129 29.0538 37.2008 29.22 37.23C29.72 37.33 30.08 37.75 30.08 38.26V43.36H32.04C32.5714 43.3587 33.0978 43.4622 33.5891 43.6646C34.0804 43.8671 34.527 44.1645 34.9032 44.5397C35.2794 44.915 35.5779 45.3608 35.7815 45.8516C35.9852 46.3424 36.09 46.8686 36.09 47.4V53.17C36.0874 54.2407 35.6609 55.2667 34.9038 56.0238C34.1467 56.7809 33.1207 57.2074 32.05 57.21H29.04C28.9732 57.2139 28.9061 57.2106 28.84 57.2L28.85 57.21Z" fill="#333545"/>
<path fill-rule="evenodd" clip-rule="evenodd" d="M43.14 45.35C43.0277 45.3304 42.914 45.3204 42.8 45.32C42.5405 45.3174 42.2832 45.3665 42.043 45.4645C41.8027 45.5626 41.5845 45.7076 41.401 45.8911C41.2176 46.0745 41.0726 46.2928 40.9745 46.533C40.8764 46.7732 40.8273 47.0306 40.83 47.29V53.3C40.8287 53.5591 40.8787 53.8159 40.9772 54.0555C41.0758 54.2951 41.2208 54.5128 41.404 54.696C41.5872 54.8792 41.8049 55.0242 42.0445 55.1228C42.2842 55.2213 42.5409 55.2714 42.8 55.27C43.3225 55.27 43.8235 55.0625 44.193 54.693C44.5624 54.3236 44.77 53.8225 44.77 53.3V47.3C44.77 46.33 44.08 45.52 43.14 45.35ZM42.09 57.3C41.1524 57.1351 40.3032 56.6443 39.6921 55.9144C39.081 55.1844 38.7474 54.262 38.75 53.31V47.3C38.7482 46.7681 38.8526 46.2412 39.0569 45.7502C39.2612 45.2591 39.5614 44.8137 39.94 44.44C40.3155 44.0646 40.7614 43.7672 41.2522 43.5647C41.7431 43.3621 42.269 43.2586 42.8 43.26C43.8715 43.26 44.8991 43.6857 45.6567 44.4433C46.4144 45.201 46.84 46.2286 46.84 47.3V53.31C46.84 54.39 46.42 55.41 45.65 56.18C45.276 56.5547 44.8318 56.8518 44.3427 57.0543C43.8536 57.2568 43.3293 57.3607 42.8 57.36C42.562 57.361 42.3244 57.341 42.09 57.3ZM53.89 45.36C53.7777 45.3404 53.664 45.3303 53.55 45.33C53.2905 45.3274 53.0332 45.3765 52.793 45.4745C52.5527 45.5726 52.3345 45.7176 52.151 45.9011C51.9676 46.0845 51.8226 46.3028 51.7245 46.543C51.6264 46.7832 51.5773 47.0406 51.58 47.3V53.31C51.5787 53.5691 51.6287 53.8259 51.7273 54.0655C51.8258 54.3051 51.9708 54.5228 52.154 54.706C52.3372 54.8892 52.5549 55.0342 52.7945 55.1328C53.0341 55.2313 53.2909 55.2814 53.55 55.28C53.8091 55.2814 54.0658 55.2313 54.3054 55.1328C54.5451 55.0342 54.7628 54.8892 54.9459 54.706C55.1291 54.5228 55.2742 54.3051 55.3727 54.0655C55.4713 53.8259 55.5213 53.5691 55.52 53.31V47.3C55.52 46.34 54.83 45.53 53.89 45.36ZM52.84 57.3C51.9042 57.133 51.0573 56.6413 50.4483 55.9115C49.8392 55.1818 49.507 54.2606 49.51 53.31V47.3C49.5116 46.7107 49.6417 46.1288 49.8914 45.5949C50.1411 45.0611 50.5043 44.5882 50.9557 44.2092C51.407 43.8302 51.9356 43.5543 52.5046 43.4007C53.0736 43.2472 53.6693 43.2196 54.25 43.32C55.1877 43.4826 56.038 43.971 56.6508 44.6991C57.2637 45.4272 57.5998 46.3483 57.6 47.3V53.31C57.6012 53.8442 57.4957 54.3733 57.2896 54.8661C57.0836 55.359 56.7811 55.8057 56.4 56.18C56.026 56.5547 55.5818 56.8518 55.0927 57.0543C54.6036 57.2568 54.0793 57.3607 53.55 57.36C53.31 57.36 53.07 57.34 52.84 57.3ZM61.11 57.34C60.8699 57.2995 60.6522 57.1743 60.4963 56.9873C60.3404 56.8002 60.2566 56.5635 60.26 56.32V38.27C60.26 37.99 60.36 37.72 60.56 37.53C60.678 37.4136 60.8223 37.3273 60.9807 37.2786C61.1391 37.2298 61.307 37.22 61.47 37.25C61.97 37.33 62.34 37.76 62.34 38.27V48.95L67.12 43.59C67.36 43.33 67.72 43.21 68.08 43.27C68.2615 43.3004 68.4316 43.3789 68.5725 43.4972C68.7134 43.6156 68.82 43.7696 68.8813 43.9431C68.9425 44.1167 68.9562 44.3034 68.9208 44.484C68.8854 44.6646 68.8022 44.8325 68.68 44.97L65.07 49L68.8 55.83C68.8672 55.9452 68.9106 56.0727 68.9278 56.2049C68.9449 56.3372 68.9355 56.4715 68.9 56.6C68.8613 56.7325 68.7962 56.8558 68.7086 56.9623C68.6209 57.0689 68.5125 57.1566 68.39 57.22C68.1783 57.3418 67.9302 57.3843 67.69 57.34C67.5406 57.3148 67.3986 57.2569 67.2741 57.1705C67.1497 57.084 67.0458 56.9712 66.97 56.84L63.61 50.66L62.33 52.07V56.32C62.33 56.5959 62.2204 56.8604 62.0254 57.0554C61.8303 57.2505 61.5658 57.36 61.29 57.36C61.22 57.36 61.16 57.36 61.09 57.34H61.11ZM106.92 57.33C106.358 57.2358 105.823 57.0173 105.356 56.6903C104.889 56.3633 104.501 55.9362 104.22 55.44C104.083 55.197 104.047 54.9095 104.12 54.64C104.2 54.38 104.37 54.16 104.6 54.02C104.814 53.9034 105.061 53.8645 105.3 53.91C105.6 53.96 105.87 54.14 106.02 54.41C106.29 54.87 106.72 55.17 107.25 55.26C107.523 55.3075 107.804 55.2926 108.07 55.2164C108.337 55.1402 108.583 55.0047 108.79 54.82C109.19 54.45 109.39 53.92 109.34 53.4C109.329 53.1335 109.255 52.8733 109.125 52.6405C108.995 52.4077 108.811 52.2089 108.59 52.06L105.79 50.07C105.334 49.7497 104.954 49.3327 104.677 48.8487C104.401 48.3647 104.234 47.8257 104.19 47.27C104.154 46.7094 104.246 46.1479 104.459 45.6281C104.672 45.1083 105.001 44.6439 105.42 44.27C105.829 43.8897 106.318 43.6053 106.851 43.4376C107.383 43.2698 107.947 43.2228 108.5 43.3C109.68 43.5 110.64 44.18 111.19 45.14C111.323 45.3799 111.357 45.6618 111.286 45.9266C111.215 46.1914 111.045 46.4184 110.81 46.56C110.598 46.6818 110.35 46.7243 110.11 46.68C109.961 46.6548 109.819 46.5969 109.694 46.5105C109.57 46.424 109.466 46.3112 109.39 46.18C109.265 45.9679 109.094 45.7861 108.89 45.6478C108.686 45.5095 108.454 45.418 108.21 45.38C107.961 45.3349 107.705 45.3485 107.462 45.4197C107.219 45.4908 106.995 45.6176 106.81 45.79C106.629 45.9609 106.488 46.1696 106.396 46.4011C106.304 46.6327 106.265 46.8815 106.28 47.13C106.3 47.62 106.58 48.1 107 48.38L109.8 50.33C110.275 50.6628 110.668 51.0998 110.949 51.6076C111.23 52.1153 111.391 52.6805 111.42 53.26C111.466 53.8368 111.377 54.4165 111.16 54.9529C110.943 55.4893 110.604 55.9677 110.17 56.35C109.748 56.7425 109.243 57.036 108.693 57.209C108.143 57.3819 107.561 57.4301 106.99 57.35L106.91 57.33H106.92ZM114.95 57.36C114.71 57.3178 114.492 57.1926 114.335 57.0061C114.178 56.8197 114.091 56.5839 114.09 56.34V38.29C114.089 38.1531 114.115 38.0173 114.166 37.8905C114.218 37.7637 114.295 37.6485 114.392 37.5517C114.488 37.4548 114.604 37.3783 114.73 37.3265C114.857 37.2747 114.993 37.2487 115.13 37.25L115.33 37.26C115.83 37.36 116.17 37.77 116.17 38.29V43.39H118.14C118.671 43.3887 119.197 43.4923 119.688 43.6949C120.178 43.8974 120.624 44.195 121 44.5704C121.375 44.9458 121.673 45.3917 121.875 45.8824C122.078 46.3732 122.181 46.8991 122.18 47.43V56.33C122.181 56.481 122.148 56.6304 122.085 56.7675C122.022 56.9046 121.929 57.0261 121.814 57.1234C121.698 57.2207 121.563 57.2915 121.417 57.3306C121.271 57.3698 121.119 57.3764 120.97 57.35C120.47 57.26 120.11 56.83 120.11 56.32V47.42C120.11 47.1618 120.059 46.9061 119.96 46.6677C119.861 46.4292 119.715 46.2127 119.532 46.0306C119.349 45.8484 119.132 45.7043 118.893 45.6064C118.654 45.5084 118.398 45.4587 118.14 45.46H116.17V56.33C116.171 56.482 116.139 56.6324 116.075 56.7704C116.011 56.9083 115.917 57.0304 115.801 57.1279C115.684 57.2254 115.547 57.2959 115.4 57.3343C115.253 57.3727 115.099 57.3781 114.95 57.35V57.36ZM129.23 45.37C128.947 45.3186 128.655 45.3302 128.377 45.4042C128.099 45.4781 127.84 45.6124 127.619 45.7976C127.399 45.9828 127.222 46.2144 127.101 46.4758C126.98 46.7372 126.918 47.022 126.92 47.31V53.32C126.919 53.5783 126.968 53.8342 127.066 54.0732C127.164 54.3121 127.308 54.5294 127.491 54.7124C127.673 54.8955 127.889 55.0408 128.128 55.1399C128.366 55.239 128.622 55.29 128.88 55.29C129.4 55.29 129.9 55.09 130.27 54.72C130.455 54.5372 130.602 54.3191 130.702 54.0787C130.801 53.8382 130.852 53.5803 130.85 53.32V47.3C130.85 46.34 130.17 45.52 129.22 45.36L129.23 45.37ZM128.17 57.29C127.235 57.1251 126.388 56.6355 125.779 55.9073C125.17 55.1792 124.837 54.2594 124.84 53.31V47.3C124.84 46.7098 124.969 46.1268 125.218 45.5917C125.467 45.0567 125.83 44.5825 126.282 44.2024C126.733 43.8224 127.262 43.5456 127.832 43.3914C128.402 43.2373 128.998 43.2095 129.58 43.31C130.519 43.4729 131.371 43.9627 131.984 44.6929C132.597 45.4231 132.932 46.3466 132.93 47.3V53.31C132.93 53.8426 132.825 54.37 132.618 54.8611C132.412 55.3522 132.11 55.7972 131.73 56.17C131.271 56.6306 130.708 56.9731 130.088 57.1682C129.468 57.3633 128.81 57.4051 128.17 57.29Z" fill="#333545"/>
<path fill-rule="evenodd" clip-rule="evenodd" d="M148.9 44.54C148.934 44.413 148.943 44.2805 148.926 44.1501C148.909 44.0197 148.866 43.8939 148.8 43.78C148.724 43.6587 148.625 43.5536 148.509 43.4712C148.392 43.3888 148.26 43.3306 148.12 43.3C147.862 43.2513 147.595 43.3028 147.374 43.444C147.153 43.5853 146.994 43.8056 146.93 44.06C146.93 44.11 145.81 48.62 144.93 52.05L144.91 52.12L144.89 52.05L142.89 44.07C142.851 43.8752 142.754 43.6969 142.611 43.5592C142.468 43.4215 142.286 43.3311 142.09 43.3C142.031 43.2883 141.97 43.2816 141.91 43.28C141.45 43.28 141.05 43.6 140.92 44.06C140.91 44.11 139.79 48.62 138.92 52.05L138.9 52.12L138.88 52.05C138.03 48.62 136.88 44.11 136.88 44.06C136.833 43.8686 136.731 43.695 136.588 43.5601C136.444 43.4252 136.264 43.3349 136.07 43.3C135.904 43.2706 135.732 43.283 135.572 43.3361C135.411 43.3893 135.267 43.4815 135.151 43.6044C135.035 43.7274 134.951 43.8773 134.907 44.0406C134.863 44.2039 134.861 44.3755 134.9 44.54L137.91 56.57C137.967 56.7905 138.095 56.9862 138.273 57.1271C138.452 57.268 138.672 57.3463 138.9 57.35C139.39 57.35 139.78 57.03 139.88 56.57L141.88 48.58L141.91 48.51L141.93 48.58C142.81 52.05 143.93 56.58 143.93 56.58C143.99 56.7962 144.117 56.9876 144.293 57.1262C144.47 57.2647 144.686 57.3432 144.91 57.35C145.14 57.3572 145.366 57.2829 145.547 57.1403C145.728 56.9976 145.853 56.7957 145.9 56.57L148.9 44.54Z" fill="#333545"/>
<defs>
<filter id="filter0_dd_1_121" x="0" y="0" width="176" height="102" filterUnits="userSpaceOnUse" color-interpolation-filters="sRGB">
<feFlood flood-opacity="0" result="BackgroundImageFix"/>
<feColorMatrix in="SourceAlpha" type="matrix" values="0 0 0 0 0 0 0 0 0 0 0 0 0 0 0 0 0 0 127 0" result="hardAlpha"/>
<feOffset dy="1"/>
<feGaussianBlur stdDeviation="1.5"/>
<feColorMatrix type="matrix" values="0 0 0 0 0 0 0 0 0 0 0 0 0 0 0 0 0 0 0.1 0"/>
<feBlend mode="normal" in2="BackgroundImageFix" result="effect1_dropShadow_1_121"/>
<feColorMatrix in="SourceAlpha" type="matrix" values="0 0 0 0 0 0 0 0 0 0 0 0 0 0 0 0 0 0 127 0" result="hardAlpha"/>
<feOffset dy="1"/>
<feGaussianBlur stdDeviation="1"/>
<feColorMatrix type="matrix" values="0 0 0 0 0 0 0 0 0 0 0 0 0 0 0 0 0 0 0.06 0"/>
<feBlend mode="normal" in2="effect1_dropShadow_1_121" result="effect2_dropShadow_1_121"/>
<feBlend mode="normal" in="SourceGraphic" in2="effect2_dropShadow_1_121" result="shape"/>
</filter>
</defs>
</svg>
