<svg width="176" height="102" viewBox="0 0 176 102" fill="none" xmlns="http://www.w3.org/2000/svg">
<g filter="url(#filter0_dd_1_112)">
<rect x="3" y="2" width="170" height="96" fill="white"/>
</g>
<path d="M81.4273 50.4105C81.4273 54.8522 77.9382 58.1252 73.6562 58.1252C69.3742 58.1252 65.885 54.8522 65.885 50.4105C65.885 45.9374 69.3742 42.6957 73.6562 42.6957C77.9382 42.6957 81.4273 45.9374 81.4273 50.4105ZM78.0255 50.4105C78.0255 47.6348 76.0032 45.7357 73.6562 45.7357C71.3091 45.7357 69.2869 47.6348 69.2869 50.4105C69.2869 53.1583 71.3091 55.0852 73.6562 55.0852C76.0032 55.0852 78.0255 53.1548 78.0255 50.4105Z" fill="#EA4335"/>
<path d="M98.192 50.4105C98.192 54.8522 94.7029 58.1252 90.4209 58.1252C86.1389 58.1252 82.6497 54.8522 82.6497 50.4105C82.6497 45.9409 86.1389 42.6957 90.4209 42.6957C94.7029 42.6957 98.192 45.9374 98.192 50.4105ZM94.7902 50.4105C94.7902 47.6348 92.7679 45.7357 90.4209 45.7357C88.0738 45.7357 86.0516 47.6348 86.0516 50.4105C86.0516 53.1583 88.0738 55.0852 90.4209 55.0852C92.7679 55.0852 94.7902 53.1548 94.7902 50.4105Z" fill="#FBBC05"/>
<path d="M114.258 43.1618V57.0122C114.258 62.7096 110.884 65.0365 106.896 65.0365C103.141 65.0365 100.881 62.5357 100.029 60.4905L102.991 59.2626C103.518 60.5183 104.811 62 106.892 62C109.445 62 111.028 60.4313 111.028 57.4783V56.3687H110.909C110.147 57.3044 108.68 58.1218 106.829 58.1218C102.956 58.1218 99.4075 54.7618 99.4075 50.4383C99.4075 46.0835 102.956 42.6957 106.829 42.6957C108.677 42.6957 110.144 43.5131 110.909 44.4209H111.028V43.1652H114.258V43.1618ZM111.269 50.4383C111.269 47.7218 109.449 45.7357 107.133 45.7357C104.786 45.7357 102.82 47.7218 102.82 50.4383C102.82 53.127 104.786 55.0852 107.133 55.0852C109.449 55.0852 111.269 53.127 111.269 50.4383Z" fill="#4285F4"/>
<path d="M119.585 35.0435V57.6522H116.267V35.0435H119.585Z" fill="#34A853"/>
<path d="M132.514 52.9495L135.155 54.7026C134.303 55.9582 132.249 58.1217 128.7 58.1217C124.3 58.1217 121.013 54.7339 121.013 50.4069C121.013 45.8191 124.328 42.6921 128.32 42.6921C132.34 42.6921 134.306 45.8782 134.949 47.6L135.302 48.4765L124.946 52.7478C125.739 54.2956 126.972 55.0852 128.7 55.0852C130.433 55.0852 131.634 54.2365 132.514 52.9495ZM124.387 50.1739L131.309 47.3113C130.929 46.3478 129.783 45.6765 128.435 45.6765C126.706 45.6765 124.3 47.1965 124.387 50.1739Z" fill="#EA4335"/>
<path d="M53.3257 48.4035V45.1304H64.4008C64.5091 45.7008 64.565 46.3756 64.565 47.1061C64.565 49.5617 63.8909 52.5982 61.7185 54.7617C59.6054 56.953 56.9056 58.1217 53.3291 58.1217C46.7001 58.1217 41.1258 52.7443 41.1258 46.1426C41.1258 39.5408 46.7001 34.1635 53.3291 34.1635C56.9964 34.1635 59.6089 35.5965 61.5718 37.4643L59.2527 39.7739C57.8451 38.4591 55.9382 37.4365 53.3257 37.4365C48.4848 37.4365 44.6988 41.3217 44.6988 46.1426C44.6988 50.9635 48.4848 54.8487 53.3257 54.8487C56.4655 54.8487 58.2538 53.593 59.3994 52.4521C60.3284 51.5269 60.9396 50.2052 61.1806 48.4L53.3257 48.4035Z" fill="#4285F4"/>
<defs>
<filter id="filter0_dd_1_112" x="0" y="0" width="176" height="102" filterUnits="userSpaceOnUse" color-interpolation-filters="sRGB">
<feFlood flood-opacity="0" result="BackgroundImageFix"/>
<feColorMatrix in="SourceAlpha" type="matrix" values="0 0 0 0 0 0 0 0 0 0 0 0 0 0 0 0 0 0 127 0" result="hardAlpha"/>
<feOffset dy="1"/>
<feGaussianBlur stdDeviation="1.5"/>
<feColorMatrix type="matrix" values="0 0 0 0 0 0 0 0 0 0 0 0 0 0 0 0 0 0 0.1 0"/>
<feBlend mode="normal" in2="BackgroundImageFix" result="effect1_dropShadow_1_112"/>
<feColorMatrix in="SourceAlpha" type="matrix" values="0 0 0 0 0 0 0 0 0 0 0 0 0 0 0 0 0 0 127 0" result="hardAlpha"/>
<feOffset dy="1"/>
<feGaussianBlur stdDeviation="1"/>
<feColorMatrix type="matrix" values="0 0 0 0 0 0 0 0 0 0 0 0 0 0 0 0 0 0 0.06 0"/>
<feBlend mode="normal" in2="effect1_dropShadow_1_112" result="effect2_dropShadow_1_112"/>
<feBlend mode="normal" in="SourceGraphic" in2="effect2_dropShadow_1_112" result="shape"/>
</filter>
</defs>
</svg>
