<svg width="176" height="102" viewBox="0 0 176 102" fill="none" xmlns="http://www.w3.org/2000/svg">
<g filter="url(#filter0_dd_1_144)">
<rect x="3" y="2" width="170" height="96" fill="white"/>
</g>
<g clip-path="url(#clip0_1_144)">
<path d="M70.0636 51.9752L69.3364 54.031H69.2758C69.1546 53.5674 68.9324 52.862 68.5689 52.0155L64.6705 42.2403H60.853V57.8201H63.3778V48.2062C63.3778 47.6015 63.3778 46.9163 63.3576 46.0698C63.3374 45.6465 63.297 45.324 63.2768 45.0822H63.3374C63.4586 45.6868 63.6 46.1302 63.701 46.4124L68.3871 57.7798H70.1646L74.8102 46.3116C74.9112 46.0496 75.0122 45.5256 75.1132 45.0822H75.1738C75.1132 46.231 75.0728 47.2589 75.0526 47.8837V57.7597H77.7391V42.2H74.0629L70.0636 51.9752ZM80.2841 46.5938H82.9099V57.7597H80.2841V46.5938ZM81.6172 41.8775C81.1728 41.8775 80.8093 42.0387 80.5063 42.3209C80.2033 42.6031 80.0417 42.9659 80.0417 43.4093C80.0417 43.8325 80.2033 44.1953 80.5063 44.4775C80.8093 44.7597 81.1728 44.9008 81.6172 44.9008C82.0616 44.9008 82.4453 44.7395 82.7281 44.4775C83.0311 44.1953 83.1927 43.8325 83.1927 43.4093C83.1927 42.986 83.0311 42.6232 82.7281 42.3209C82.4655 42.0387 82.0818 41.8775 81.6172 41.8775ZM92.2215 46.493C91.7367 46.3922 91.2318 46.3318 90.747 46.3318C89.5553 46.3318 88.4645 46.5938 87.5556 47.1178C86.6467 47.6418 85.9195 48.3674 85.4549 49.2744C84.9702 50.2015 84.7278 51.2698 84.7278 52.4992C84.7278 53.5674 84.9702 54.5147 85.4347 55.3814C85.8993 56.2279 86.5457 56.9132 87.4142 57.3767C88.2424 57.8403 89.2119 58.0822 90.3026 58.0822C91.5549 58.0822 92.6255 57.8201 93.4738 57.3364L93.494 57.3163V54.8977L93.393 54.9783C93.0093 55.2605 92.5649 55.5023 92.1205 55.6434C91.6559 55.8046 91.2318 55.8853 90.8682 55.8853C89.8179 55.8853 88.9897 55.5829 88.404 54.9178C87.798 54.2729 87.495 53.386 87.495 52.2775C87.495 51.1287 87.798 50.2217 88.4242 49.5566C89.0503 48.8915 89.8785 48.5488 90.8884 48.5488C91.7367 48.5488 92.6053 48.831 93.393 49.3953L93.494 49.476V46.9163L93.4738 46.8961C93.1304 46.755 92.7467 46.5938 92.2215 46.493ZM100.887 46.4124C100.24 46.4124 99.6344 46.6139 99.1093 47.0372C98.6649 47.4 98.3619 47.924 98.0993 48.5488H98.0791V46.5938H95.4533V57.7597H98.0791V52.0558C98.0791 51.0884 98.2811 50.2822 98.7255 49.6977C99.1698 49.093 99.7354 48.7907 100.422 48.7907C100.665 48.7907 100.907 48.8511 101.21 48.8915C101.493 48.9721 101.695 49.0527 101.836 49.1535L101.937 49.2341V46.6139L101.876 46.5938C101.695 46.4729 101.331 46.4124 100.887 46.4124ZM108.037 46.3519C106.199 46.3519 104.724 46.8961 103.694 47.9643C102.644 49.0325 102.139 50.5039 102.139 52.3581C102.139 54.0915 102.664 55.5023 103.674 56.5302C104.684 57.538 106.058 58.062 107.774 58.062C109.572 58.062 111.006 57.5178 112.036 56.4294C113.087 55.3411 113.592 53.8899 113.592 52.0961C113.592 50.3225 113.107 48.9116 112.117 47.8837C111.168 46.8558 109.774 46.3519 108.037 46.3519ZM110.138 54.938C109.653 55.5628 108.885 55.8651 107.936 55.8651C106.987 55.8651 106.219 55.5628 105.674 54.8977C105.128 54.2729 104.866 53.3659 104.866 52.217C104.866 51.0279 105.149 50.1209 105.674 49.476C106.219 48.831 106.967 48.5085 107.916 48.5085C108.845 48.5085 109.572 48.8108 110.097 49.4356C110.622 50.0604 110.905 50.9674 110.905 52.1566C110.865 53.3659 110.643 54.3132 110.138 54.938ZM119.449 51.2294C118.621 50.8868 118.096 50.6248 117.854 50.4031C117.652 50.2015 117.551 49.9194 117.551 49.5566C117.551 49.2542 117.672 48.9519 117.975 48.7504C118.278 48.5488 118.621 48.448 119.126 48.448C119.571 48.448 120.035 48.5287 120.479 48.6496C120.924 48.7705 121.328 48.9519 121.651 49.1938L121.752 49.2744V46.8155L121.691 46.7953C121.388 46.6744 120.984 46.5535 120.5 46.4527C120.015 46.3721 119.571 46.3318 119.207 46.3318C117.955 46.3318 116.924 46.6341 116.117 47.2992C115.309 47.924 114.925 48.7705 114.925 49.7581C114.925 50.2822 115.006 50.7457 115.187 51.1287C115.369 51.5116 115.632 51.8744 115.995 52.1767C116.359 52.4589 116.884 52.7814 117.611 53.0837C118.217 53.3457 118.682 53.5473 118.965 53.7085C119.247 53.8698 119.429 54.0511 119.571 54.1922C119.671 54.3535 119.732 54.555 119.732 54.817C119.732 55.5628 119.167 55.9256 118.015 55.9256C117.571 55.9256 117.106 55.8449 116.561 55.6636C116.016 55.4822 115.511 55.2201 115.086 54.9178L114.985 54.8372V57.3969L115.046 57.417C115.43 57.5984 115.894 57.7194 116.46 57.8605C117.025 57.9612 117.53 58.0418 117.975 58.0418C119.328 58.0418 120.439 57.7395 121.227 57.0744C122.035 56.4294 122.459 55.6031 122.459 54.5349C122.459 53.7891 122.257 53.124 121.813 52.6201C121.227 52.1364 120.5 51.6325 119.449 51.2294ZM129.387 46.3519C127.549 46.3519 126.074 46.8961 125.044 47.9643C124.014 49.0325 123.489 50.5039 123.489 52.3581C123.489 54.0915 124.014 55.5023 125.024 56.5302C126.034 57.538 127.408 58.062 129.124 58.062C130.922 58.062 132.356 57.5178 133.386 56.4294C134.437 55.3411 134.942 53.8899 134.942 52.0961C134.942 50.3225 134.457 48.9116 133.467 47.8837C132.518 46.8558 131.124 46.3519 129.387 46.3519ZM131.468 54.938C130.983 55.5628 130.215 55.8651 129.266 55.8651C128.296 55.8651 127.549 55.5628 127.004 54.8977C126.458 54.2729 126.196 53.3659 126.196 52.217C126.196 51.0279 126.478 50.1209 127.004 49.476C127.549 48.831 128.296 48.5085 129.246 48.5085C130.155 48.5085 130.902 48.8108 131.427 49.4356C131.952 50.0604 132.235 50.9674 132.235 52.1566C132.235 53.3659 131.972 54.3132 131.468 54.938ZM148.98 48.7504V46.5938H146.334V43.2884L146.253 43.3085L143.748 44.0542L143.688 44.0744V46.5938H139.729V45.1829C139.729 44.538 139.89 44.0341 140.173 43.7116C140.456 43.3891 140.88 43.2279 141.405 43.2279C141.769 43.2279 142.153 43.3085 142.577 43.4899L142.678 43.5504V41.2729L142.617 41.2527C142.254 41.1318 141.769 41.0511 141.143 41.0511C140.355 41.0511 139.668 41.2325 139.042 41.5349C138.416 41.8775 137.951 42.3411 137.608 42.9659C137.265 43.5705 137.083 44.2558 137.083 45.0418V46.5938H135.245V48.7302H137.083V57.7597H139.729V48.7504H143.688V54.4946C143.688 56.8527 144.799 58.0418 147.021 58.0418C147.384 58.0418 147.768 57.9814 148.131 57.9209C148.515 57.8403 148.798 57.7395 148.96 57.6589L148.98 57.6387V55.4822L148.879 55.5628C148.717 55.6636 148.576 55.7442 148.333 55.8046C148.131 55.8651 147.95 55.8853 147.808 55.8853C147.283 55.8853 146.92 55.7643 146.657 55.462C146.415 55.1798 146.293 54.7163 146.293 54.031V48.7504H148.98Z" fill="#737373"/>
<path d="M27 37H39.3818V49.355H27V37Z" fill="#F25022"/>
<path d="M40.6744 37H53.0562V49.355H40.6744V37Z" fill="#7FBA00"/>
<path d="M27 50.645H39.3818V63H27V50.645Z" fill="#00A4EF"/>
<path d="M40.6744 50.645H53.0562V63H40.6744V50.645Z" fill="#FFB900"/>
</g>
<defs>
<filter id="filter0_dd_1_144" x="0" y="0" width="176" height="102" filterUnits="userSpaceOnUse" color-interpolation-filters="sRGB">
<feFlood flood-opacity="0" result="BackgroundImageFix"/>
<feColorMatrix in="SourceAlpha" type="matrix" values="0 0 0 0 0 0 0 0 0 0 0 0 0 0 0 0 0 0 127 0" result="hardAlpha"/>
<feOffset dy="1"/>
<feGaussianBlur stdDeviation="1.5"/>
<feColorMatrix type="matrix" values="0 0 0 0 0 0 0 0 0 0 0 0 0 0 0 0 0 0 0.1 0"/>
<feBlend mode="normal" in2="BackgroundImageFix" result="effect1_dropShadow_1_144"/>
<feColorMatrix in="SourceAlpha" type="matrix" values="0 0 0 0 0 0 0 0 0 0 0 0 0 0 0 0 0 0 127 0" result="hardAlpha"/>
<feOffset dy="1"/>
<feGaussianBlur stdDeviation="1"/>
<feColorMatrix type="matrix" values="0 0 0 0 0 0 0 0 0 0 0 0 0 0 0 0 0 0 0.06 0"/>
<feBlend mode="normal" in2="effect1_dropShadow_1_144" result="effect2_dropShadow_1_144"/>
<feBlend mode="normal" in="SourceGraphic" in2="effect2_dropShadow_1_144" result="shape"/>
</filter>
<clipPath id="clip0_1_144">
<rect width="122" height="26" fill="white" transform="translate(27 37)"/>
</clipPath>
</defs>
</svg>
