<svg width="176" height="102" viewBox="0 0 176 102" fill="none" xmlns="http://www.w3.org/2000/svg">
<g filter="url(#filter0_dd_1_139)">
<rect x="3" y="2" width="170" height="96" fill="white"/>
</g>
<g clip-path="url(#clip0_1_139)">
<path d="M70.7048 45.9592V47.5461H70.7535C71.3267 46.6965 72.2782 45.6959 74.3874 45.6959C76.0284 45.6959 77.2871 46.528 77.8266 47.7848H77.8753C78.3361 47.1494 78.8643 46.6684 79.4563 46.3279C80.1568 45.9241 80.9361 45.6924 81.9176 45.6924C84.1392 45.6924 86.1061 47.1318 86.1061 50.7618V57.6463H82.7193V51.2428C82.7193 49.4032 82.0525 48.3395 80.6663 48.3395C79.6511 48.3395 78.913 48.9784 78.6321 49.7648C78.5347 50.0351 78.4897 50.4037 78.4897 50.7127V57.6498H75.103V50.983C75.103 49.4208 74.4624 48.336 73.0949 48.336C72.001 48.336 71.3154 49.1434 71.0344 49.835C70.9146 50.1299 70.8771 50.4704 70.8771 50.7899V57.6463H67.4866V45.9592H70.7048ZM103.587 45.9592V48.1639H103.68C104.302 46.4788 105.778 45.6959 107.074 45.6959C107.4 45.6959 107.58 45.7205 107.842 45.7697V48.831C107.532 48.7888 107.243 48.7467 106.838 48.7467C105.37 48.7467 104.347 49.5471 104.089 50.8004C104.032 51.0602 104.014 51.3411 104.014 51.6641V57.6498H100.537V45.9592H103.587ZM112.563 42.087V45.7662H115.5V48.7432H112.563V53.135C112.563 54.5569 112.949 55.245 114.095 55.245C114.635 55.245 115.032 55.1818 115.376 55.101L115.421 57.569C114.961 57.7305 113.979 57.906 112.982 57.906C111.81 57.906 110.832 57.5234 110.236 56.9301C109.555 56.2525 109.24 55.1431 109.24 53.5633V42.087H112.563ZM65.1264 57.6463H61.7547V42.087H65.1264V57.6463ZM56.1352 53.4721C56.1352 53.6862 56.1164 53.9109 56.0528 54.104C55.7905 54.915 54.8951 55.5995 53.7787 55.5995C52.8459 55.5995 52.1041 55.1045 52.1041 54.0548C52.1041 52.4505 53.9923 52.0046 56.1389 52.0151V53.4721H56.1352ZM59.5032 50.6741C59.5032 48.0235 58.2968 45.6959 54.217 45.6959C52.1228 45.6959 50.4594 46.2471 49.5528 46.7386L50.2159 48.8661C51.0439 48.3746 52.3663 47.9709 53.6176 47.9709C55.6894 47.9673 56.0265 49.0697 56.0265 49.7753V49.9438C51.5122 49.9368 48.6612 51.4008 48.6612 54.3848C48.6612 56.2069 50.111 57.9131 52.6361 57.9131C54.1908 57.9131 55.4871 57.3338 56.2663 56.4035H56.3412C56.3412 56.4035 56.8582 58.4221 59.698 57.6498C59.5481 56.8072 59.4994 55.912 59.4994 54.8342V50.6741H59.5032ZM31.7239 42.087C32.0723 43.7335 33.0613 48.515 33.0613 48.515C33.4772 50.481 33.8593 52.5417 34.1478 54.1707H34.2002C34.4812 52.4399 34.9233 50.8005 35.3953 48.7713L37.0624 42.087H40.7526L42.3111 48.9433C42.7195 50.8496 43.0454 52.3206 43.3039 54.0935H43.3526C43.6336 52.303 44.0007 50.7724 44.4016 48.8134L45.9001 42.087H49.4404L45.0534 57.6463C42.2586 58.2185 41.1872 57.1653 40.8051 55.4942C40.4229 53.8196 39.6737 50.6354 39.6737 50.6354C39.2878 48.8906 38.9881 47.6619 38.7783 45.8715H38.7258C38.4261 47.6444 38.1114 48.8871 37.6469 50.6319L35.8074 57.6498C32.9527 58.1834 31.9636 57.3935 31.4167 55.2485C30.9446 53.4124 28 42.0905 28 42.0905H31.7239V42.087ZM94.9175 53.4721C94.9175 53.6862 94.8988 53.9109 94.8351 54.104C94.5728 54.915 93.6775 55.5995 92.561 55.5995C91.6282 55.5995 90.8864 55.1045 90.8864 54.0548C90.8864 52.4505 92.7746 52.0046 94.9212 52.0151V53.4721H94.9175ZM98.2855 50.6741C98.2855 48.0235 97.0791 45.6959 92.9994 45.6959C90.9051 45.6959 89.2418 46.2471 88.3351 46.7386L88.9982 48.8661C89.8262 48.3746 91.1487 47.9709 92.3999 47.9709C94.4679 47.9673 94.8089 49.0697 94.8089 49.7753V49.9438C90.2982 49.9368 87.4473 51.4008 87.4473 54.3848C87.4473 56.2069 88.9008 57.9131 91.4221 57.9131C92.9731 57.9131 94.2731 57.3338 95.0486 56.4035H95.1273C95.1273 56.4035 95.6443 58.4221 98.484 57.6498C98.3342 56.8072 98.2855 55.912 98.2855 54.8342V50.6741Z" fill="#041E42"/>
<path d="M129.168 52.2875C129.5 52.8557 129.478 53.4899 129.123 53.7795L122.991 57.999C122.353 58.3619 121.397 57.922 120.855 57.0018C120.31 56.078 120.407 55.0479 121.046 54.685L127.835 51.5837C128.26 51.4224 128.835 51.7193 129.168 52.2875ZM137.238 52.2875C137.574 51.7193 138.145 51.426 138.571 51.58L145.364 54.6813C146.002 55.0443 146.096 56.0744 145.554 56.9982C145.009 57.9183 144.049 58.3545 143.414 57.9953L137.283 53.7759C136.931 53.4899 136.905 52.8521 137.238 52.2875ZM133.201 54.575C133.869 54.575 134.418 54.9123 134.493 55.3559L135.154 62.6803C135.154 63.4061 134.291 64 133.205 64C132.122 64 131.255 63.4061 131.255 62.6803L131.913 55.3559C131.987 54.9123 132.536 54.575 133.201 54.575ZM137.283 46.2241L143.414 42.001C144.049 41.6381 145.009 42.0744 145.554 42.9982C146.096 43.922 146.002 44.9521 145.364 45.315L138.571 48.42C138.145 48.574 137.57 48.2807 137.238 47.7125C136.905 47.1443 136.931 46.5101 137.283 46.2241ZM127.835 48.42L121.046 45.315C120.411 44.9521 120.314 43.922 120.855 42.9982C121.397 42.0744 122.356 41.6381 122.991 42.001L129.123 46.2241C129.478 46.5064 129.5 47.1443 129.168 47.7125C128.835 48.2807 128.26 48.574 127.835 48.42ZM131.913 44.6441L131.255 37.3197C131.255 36.5939 132.118 36 133.205 36C134.291 36 135.154 36.5939 135.154 37.3197L134.493 44.6441C134.418 45.0841 133.869 45.425 133.201 45.425C132.536 45.425 131.987 45.0841 131.913 44.6441ZM147.212 57.9696V57.7863H147.38C147.436 57.7863 147.473 57.823 147.473 57.878C147.473 57.9293 147.436 57.9696 147.38 57.9696H147.212ZM147.074 58.3032C147.074 58.3216 147.089 58.3399 147.111 58.3399H147.182C147.201 58.3399 147.22 58.3216 147.22 58.3032V58.0943H147.335L147.429 58.3142C147.436 58.3289 147.447 58.3399 147.462 58.3399H147.548C147.574 58.3399 147.593 58.3142 147.582 58.2886C147.548 58.2226 147.515 58.1529 147.481 58.0833C147.537 58.0649 147.623 58.01 147.623 57.878C147.623 57.7387 147.507 57.658 147.391 57.658H147.111C147.093 57.658 147.074 57.6764 147.074 57.6947V58.3032ZM146.771 57.999C146.771 57.702 147.018 57.4601 147.32 57.4601C147.623 57.4601 147.869 57.6983 147.869 57.999C147.869 58.2959 147.627 58.5378 147.32 58.5378C147.014 58.5378 146.771 58.2959 146.771 57.999ZM146.641 57.999C146.641 58.3655 146.943 58.6661 147.32 58.6661C147.694 58.6661 148 58.3655 148 57.999C148 57.6324 147.694 57.3318 147.32 57.3318C146.943 57.3318 146.641 57.6324 146.641 57.999Z" fill="#FFC124"/>
</g>
<defs>
<filter id="filter0_dd_1_139" x="0" y="0" width="176" height="102" filterUnits="userSpaceOnUse" color-interpolation-filters="sRGB">
<feFlood flood-opacity="0" result="BackgroundImageFix"/>
<feColorMatrix in="SourceAlpha" type="matrix" values="0 0 0 0 0 0 0 0 0 0 0 0 0 0 0 0 0 0 127 0" result="hardAlpha"/>
<feOffset dy="1"/>
<feGaussianBlur stdDeviation="1.5"/>
<feColorMatrix type="matrix" values="0 0 0 0 0 0 0 0 0 0 0 0 0 0 0 0 0 0 0.1 0"/>
<feBlend mode="normal" in2="BackgroundImageFix" result="effect1_dropShadow_1_139"/>
<feColorMatrix in="SourceAlpha" type="matrix" values="0 0 0 0 0 0 0 0 0 0 0 0 0 0 0 0 0 0 127 0" result="hardAlpha"/>
<feOffset dy="1"/>
<feGaussianBlur stdDeviation="1"/>
<feColorMatrix type="matrix" values="0 0 0 0 0 0 0 0 0 0 0 0 0 0 0 0 0 0 0.06 0"/>
<feBlend mode="normal" in2="effect1_dropShadow_1_139" result="effect2_dropShadow_1_139"/>
<feBlend mode="normal" in="SourceGraphic" in2="effect2_dropShadow_1_139" result="shape"/>
</filter>
<clipPath id="clip0_1_139">
<rect width="120" height="28" fill="white" transform="translate(28 36)"/>
</clipPath>
</defs>
</svg>
