<svg width="32" height="15" viewBox="0 0 32 15" fill="none" xmlns="http://www.w3.org/2000/svg">
<path d="M15.208 0.175992L0.781342 6.91599C0.683781 6.96073 0.601133 7.03256 0.543236 7.12294C0.485339 7.21331 0.454633 7.31842 0.454773 7.42575C0.454914 7.53308 0.485894 7.63811 0.544027 7.72833C0.602161 7.81856 0.684997 7.89017 0.782675 7.93466L15.3227 14.6253C15.752 14.8227 16.248 14.8227 16.6773 14.6253L31.2173 7.93466C31.3151 7.8903 31.398 7.81879 31.4563 7.72865C31.5145 7.6385 31.5456 7.53351 31.5459 7.42618C31.5462 7.31885 31.5156 7.2137 31.4578 7.12325C31.4001 7.0328 31.3175 6.96086 31.22 6.91599L16.792 0.175992C16.5441 0.0601174 16.2737 6.10352e-05 16 6.10352e-05C15.7263 6.10352e-05 15.456 0.0601174 15.208 0.175992Z" fill="#22D3EE"/>
</svg>
