<svg width="32" height="10" viewBox="0 0 32 10" fill="none" xmlns="http://www.w3.org/2000/svg">
<path d="M31.22 2.14396L28.24 0.75196C28.0266 0.652246 27.794 0.600236 27.5585 0.599545C27.3229 0.598854 27.09 0.649502 26.876 0.747962L16.6774 5.43996C16.4649 5.53765 16.2338 5.58822 16 5.58822C15.7662 5.58822 15.5351 5.53765 15.3227 5.43996L5.12269 0.74663C4.90887 0.64837 4.67623 0.597827 4.44091 0.598518C4.2056 0.599208 3.97326 0.651115 3.76002 0.750628L0.780019 2.14396C0.682891 2.18899 0.600708 2.26092 0.543205 2.35122C0.485701 2.44153 0.455288 2.54642 0.455568 2.65348C0.455849 2.76054 0.486813 2.86527 0.544789 2.95527C0.602765 3.04527 0.685324 3.11677 0.782686 3.16129L15.3227 9.85196C15.752 10.0493 16.248 10.0493 16.6774 9.85196L31.2174 3.16129C31.3147 3.11677 31.3973 3.04527 31.4553 2.95527C31.5132 2.86527 31.5442 2.76054 31.5445 2.65348C31.5448 2.54642 31.5143 2.44153 31.4568 2.35122C31.3993 2.26092 31.3172 2.18899 31.22 2.14396Z" fill="#0EA5E9"/>
</svg>
