<svg width="32" height="10" viewBox="0 0 32 10" fill="none" xmlns="http://www.w3.org/2000/svg">
<path d="M31.22 1.56798L28.24 0.175982C28.0266 0.0762677 27.794 0.0242573 27.5584 0.0235665C27.3229 0.0228757 27.09 0.0735233 26.876 0.171984L16.6773 4.86531C16.4649 4.963 16.2338 5.01358 16 5.01358C15.7662 5.01358 15.5351 4.963 15.3227 4.86531L5.12267 0.171984C4.90885 0.0737244 4.67621 0.023181 4.4409 0.0238717C4.20559 0.0245625 3.97324 0.0764686 3.76001 0.175982L0.780006 1.56798C0.682503 1.61285 0.599949 1.68479 0.54217 1.77524C0.48439 1.86569 0.453823 1.97084 0.454103 2.07817C0.454384 2.1855 0.485502 2.29049 0.543754 2.38064C0.602006 2.47078 0.684937 2.54229 0.782674 2.58665L15.3227 9.27598C15.535 9.37419 15.7661 9.42505 16 9.42505C16.2339 9.42505 16.465 9.37419 16.6773 9.27598L31.2173 2.58665C31.3151 2.54229 31.398 2.47078 31.4563 2.38064C31.5145 2.29049 31.5456 2.1855 31.5459 2.07817C31.5462 1.97084 31.5156 1.86569 31.4578 1.77524C31.4001 1.68479 31.3175 1.61285 31.22 1.56798Z" fill="#A5F3FC"/>
</svg>
